<?xml version="1.0" encoding="UTF-8" standalone="no"?>
<!-- Created with Inkscape (http://www.inkscape.org/) -->

<svg
   xmlns:dc="http://purl.org/dc/elements/1.1/"
   xmlns:cc="http://creativecommons.org/ns#"
   xmlns:rdf="http://www.w3.org/1999/02/22-rdf-syntax-ns#"
   xmlns:svg="http://www.w3.org/2000/svg"
   xmlns="http://www.w3.org/2000/svg"
   xmlns:sodipodi="http://sodipodi.sourceforge.net/DTD/sodipodi-0.dtd"
   xmlns:inkscape="http://www.inkscape.org/namespaces/inkscape"
   width="386"
   height="80"
   id="svg3894"
   version="1.1"
   inkscape:version="0.48.4 r9939"
   sodipodi:docname="aaltosulku_logo1.svg">
  <defs
     id="defs3896" />
  <sodipodi:namedview
     id="base"
     pagecolor="#ffffff"
     bordercolor="#666666"
     borderopacity="1.0"
     inkscape:pageopacity="0.0"
     inkscape:pageshadow="2"
     inkscape:zoom="1.4990664"
     inkscape:cx="186.27139"
     inkscape:cy="-6.9683395"
     inkscape:document-units="px"
     showgrid="false"
     width="467px"
     inkscape:window-width="1280"
     inkscape:window-height="998"
     inkscape:window-x="1920"
     inkscape:window-y="0"
     inkscape:window-maximized="1"
     inkscape:current-layer="svg3894"
     showguides="true"
     inkscape:snap-global="false">
    <inkscape:grid
       type="xygrid"
       id="grid3758" />
  </sodipodi:namedview>
  <metadata
     id="metadata3899">
    <rdf:RDF>
      <cc:Work
         rdf:about="">
        <dc:format>image/svg+xml</dc:format>
        <dc:type
           rdf:resource="http://purl.org/dc/dcmitype/StillImage" />
        <dc:title></dc:title>
      </cc:Work>
    </rdf:RDF>
  </metadata>
  <g
     style="font-size:40px;font-style:normal;font-weight:normal;line-height:125%;letter-spacing:0px;word-spacing:0px;fill:#000000;fill-opacity:1;stroke:none;font-family:Sans"
     id="text3945"
     transform="translate(0,-2)">
    <path
       d="m 72.751823,42.555405 c -3.992527,1.5e-5 -6.758638,0.456557 -8.298339,1.369629 -1.539723,0.913098 -2.309579,2.470714 -2.309571,4.672851 -8e-6,1.754565 0.572908,3.151048 1.71875,4.189453 1.163726,1.020512 2.739245,1.530765 4.726563,1.530762 2.73924,3e-6 4.932435,-0.966793 6.57959,-2.900391 1.665016,-1.951489 2.497534,-4.538563 2.497558,-7.76123 l 0,-1.101074 -4.914551,0 m 9.855957,-2.041016 0,17.160645 -4.941406,0 0,-4.56543 c -1.127952,1.826174 -2.533387,3.177898 -4.216308,4.055176 -1.682961,0.859374 -3.741878,1.289061 -6.176758,1.289062 -3.079438,-1e-6 -5.532235,-0.859375 -7.358399,-2.578125 -1.808272,-1.73665 -2.712405,-4.05517 -2.712402,-6.955566 -3e-6,-3.383777 1.127925,-5.935044 3.383789,-7.653809 2.273754,-1.718732 5.65754,-2.578106 10.151367,-2.578125 l 6.928711,0 0,-0.483398 c -2.4e-5,-2.273742 -0.751976,-4.028297 -2.255859,-5.263672 -1.486023,-1.253229 -3.580747,-1.879856 -6.28418,-1.879883 -1.718763,2.7e-5 -3.392753,0.205918 -5.021973,0.617676 -1.62924,0.411809 -3.195807,1.029484 -4.699707,1.853027 l 0,-4.56543 c 1.808261,-0.698212 3.562817,-1.217418 5.263672,-1.557617 1.700834,-0.358042 3.35692,-0.537078 4.968262,-0.537109 4.350566,3.1e-5 7.600074,1.127959 9.748535,3.383789 2.14841,2.255885 3.222628,5.675477 3.222656,10.258789"
       style="fill:#444444;fill-opacity:0.94117647"
       id="path3785"
       inkscape:connector-curvature="0" />
    <path
       d="m 106.48229,42.555405 c -3.99253,1.5e-5 -6.758636,0.456557 -8.298338,1.369629 -1.539722,0.913098 -2.309578,2.470714 -2.30957,4.672851 -8e-6,1.754565 0.572908,3.151048 1.71875,4.189453 1.163726,1.020512 2.739248,1.530765 4.726558,1.530762 2.73924,3e-6 4.93244,-0.966793 6.57959,-2.900391 1.66502,-1.951489 2.49754,-4.538563 2.49756,-7.76123 l 0,-1.101074 -4.91455,0 m 9.85596,-2.041016 0,17.160645 -4.94141,0 0,-4.56543 c -1.12795,1.826174 -2.53338,3.177898 -4.21631,4.055176 -1.68296,0.859374 -3.74187,1.289061 -6.17675,1.289062 -3.079441,-1e-6 -5.532238,-0.859375 -7.358402,-2.578125 -1.808272,-1.73665 -2.712406,-4.05517 -2.712402,-6.955566 -4e-6,-3.383777 1.127925,-5.935044 3.383789,-7.653809 2.273754,-1.718732 5.65754,-2.578106 10.151365,-2.578125 l 6.92871,0 0,-0.483398 c -2e-5,-2.273742 -0.75197,-4.028297 -2.25586,-5.263672 -1.48602,-1.253229 -3.58074,-1.879856 -6.28418,-1.879883 -1.71876,2.7e-5 -3.392749,0.205918 -5.021969,0.617676 -1.62924,0.411809 -3.195808,1.029484 -4.699707,1.853027 l 0,-4.56543 c 1.808261,-0.698212 3.562817,-1.217418 5.263672,-1.557617 1.700834,-0.358042 3.356924,-0.537078 4.968264,-0.537109 4.35056,3.1e-5 7.60007,1.127959 9.74853,3.383789 2.14841,2.255885 3.22263,5.675477 3.22266,10.258789"
       style="fill:#444444;fill-opacity:0.94117647"
       id="path3787"
       inkscape:connector-curvature="0" />
    <path
       d="m 126.54333,15.887924 4.9414,0 0,41.78711 -4.9414,0 0,-41.78711"
       style="fill:#444444;fill-opacity:0.94117647"
       id="path3789"
       inkscape:connector-curvature="0" />
    <path
       d="m 146.68493,19.05687 0,8.540039 10.17822,0 0,3.840332 -10.17822,0 0,16.328125 c -1e-5,2.452807 0.33121,4.028326 0.99365,4.726562 0.68033,0.698247 2.04996,1.047368 4.10889,1.047363 l 5.07568,0 0,4.135743 -5.07568,0 c -3.81349,0 -6.44532,-0.707194 -7.89551,-2.121582 -1.4502,-1.432289 -2.1753,-4.028315 -2.17529,-7.788086 l 0,-16.328125 -3.62549,0 0,-3.840332 3.62549,0 0,-8.540039 4.96826,0"
       style="fill:#444444;fill-opacity:0.94117647"
       id="path3791"
       inkscape:connector-curvature="0" />
    <path
       d="m 175.0443,31.061264 c -2.64975,2.7e-5 -4.74447,1.038437 -6.28418,3.115234 -1.53972,2.058941 -2.30957,4.887714 -2.30957,8.486329 0,3.598644 0.7609,6.436369 2.28272,8.513183 1.5397,2.058924 3.64338,3.088382 6.31103,3.088379 2.63182,3e-6 4.71759,-1.038407 6.25733,-3.115234 1.53969,-2.076815 2.30954,-4.905588 2.30957,-8.486328 -3e-5,-3.562807 -0.76988,-6.382629 -2.30957,-8.459473 -1.53974,-2.094701 -3.62551,-3.142063 -6.25733,-3.14209 m 0,-4.189453 c 4.29686,3.1e-5 7.67169,1.396514 10.12452,4.189453 2.45277,2.792993 3.67916,6.660176 3.67919,11.601563 -3e-5,4.923512 -1.22642,8.790696 -3.67919,11.601562 -2.45283,2.792969 -5.82766,4.189452 -10.12452,4.189453 -4.31479,-1e-6 -7.69857,-1.396484 -10.15136,-4.189453 -2.4349,-2.810866 -3.65235,-6.67805 -3.65235,-11.601562 0,-4.941387 1.21745,-8.80857 3.65235,-11.601563 2.45279,-2.792939 5.83657,-4.189422 10.15136,-4.189453"
       style="fill:#444444;fill-opacity:0.94117647"
       id="path3793"
       inkscape:connector-curvature="0" />
    <path
       d="m 216.18688,28.483139 0,4.672852 c -1.39651,-0.716121 -2.8467,-1.25323 -4.35058,-1.611329 -1.50393,-0.358046 -3.06154,-0.537082 -4.67286,-0.537109 -2.45281,2.7e-5 -4.29688,0.376003 -5.53222,1.12793 -1.21746,0.751978 -1.82618,1.879906 -1.82617,3.383789 -1e-5,1.145854 0.43863,2.049987 1.31591,2.712402 0.87727,0.64455 2.64078,1.262225 5.29053,1.853028 l 1.6919,0.375976 c 3.50909,0.75197 5.9977,1.817236 7.46582,3.195801 1.48597,1.36069 2.22897,3.267426 2.229,5.720215 -3e-5,2.792974 -1.11005,5.004072 -3.33008,6.633301 -2.20217,1.629231 -5.23683,2.443846 -9.104,2.443847 -1.61134,-1e-6 -3.29428,-0.161133 -5.04883,-0.483398 -1.73666,-0.304362 -3.57178,-0.769857 -5.50537,-1.396485 l 0,-5.102539 c 1.82617,0.948899 3.62548,1.665044 5.39795,2.148438 1.77245,0.465498 3.527,0.698245 5.26367,0.698242 2.32746,3e-6 4.11782,-0.393876 5.37109,-1.181641 1.25324,-0.805658 1.87987,-1.933587 1.87989,-3.383789 -2e-5,-1.342764 -0.45657,-2.372222 -1.36963,-3.088379 -0.8952,-0.716134 -2.87355,-1.405423 -5.93506,-2.067871 l -1.71875,-0.402832 c -3.06153,-0.644517 -5.27263,-1.629216 -6.6333,-2.954101 -1.36068,-1.342756 -2.04102,-3.177878 -2.04102,-5.505371 0,-2.828752 1.0026,-5.012994 3.00782,-6.552735 2.0052,-1.539683 4.85187,-2.309539 8.54003,-2.30957 1.82616,3.1e-5 3.54491,0.134308 5.15625,0.402832 1.61131,0.268585 3.09731,0.671416 4.45801,1.208496"
       style="fill:#444444;fill-opacity:0.94117647"
       id="path3795"
       inkscape:connector-curvature="0" />
    <path
       d="m 225.18346,45.804916 0,-18.208007 4.94141,0 0,18.020019 c -10e-6,2.846689 0.555,4.986173 1.66504,6.418457 1.11001,1.414392 2.77505,2.121586 4.99512,2.121582 2.66762,4e-6 4.7713,-0.850419 6.31103,-2.551269 1.55759,-1.700839 2.3364,-4.019359 2.33643,-6.955567 l 0,-17.053222 4.9414,0 0,30.078125 -4.9414,0 0,-4.619141 c -1.19957,1.826175 -2.59605,3.18685 -4.18946,4.082031 -1.57554,0.877278 -3.41066,1.315917 -5.50537,1.315918 -3.45541,-1e-6 -6.07829,-1.074218 -7.86865,-3.222656 -1.79037,-2.148433 -2.68555,-5.29052 -2.68555,-9.42627 m 12.43409,-18.933105 0,0"
       style="fill:#444444;fill-opacity:0.94117647"
       id="path3797"
       inkscape:connector-curvature="0" />
    <path
       d="m 260.60583,15.887924 4.9414,0 0,41.78711 -4.9414,0 0,-41.78711"
       style="fill:#444444;fill-opacity:0.94117647"
       id="path3799"
       inkscape:connector-curvature="0" />
    <path
       d="m 275.67175,15.887924 4.96826,0 0,24.680176 14.74365,-12.971191 6.31103,0 -15.95214,14.072265 16.62353,16.00586 -6.44531,0 -15.28076,-14.689942 0,14.689942 -4.96826,0 0,-41.78711"
       style="fill:#444444;fill-opacity:0.94117647"
       id="path3801"
       inkscape:connector-curvature="0" />
    <path
       d="m 305.53503,45.804916 0,-18.208007 4.9414,0 0,18.020019 c -10e-6,2.846689 0.55501,4.986173 1.66504,6.418457 1.11002,1.414392 2.77505,2.121586 4.99512,2.121582 2.66762,4e-6 4.7713,-0.850419 6.31103,-2.551269 1.5576,-1.700839 2.33641,-4.019359 2.33643,-6.955567 l 0,-17.053222 4.94141,0 0,30.078125 -4.94141,0 0,-4.619141 c -1.19957,1.826175 -2.59605,3.18685 -4.18945,4.082031 -1.57554,0.877278 -3.41066,1.315917 -5.50537,1.315918 -3.45542,-1e-6 -6.0783,-1.074218 -7.86866,-3.222656 -1.79037,-2.148433 -2.68555,-5.29052 -2.68554,-9.42627 m 12.43408,-18.933105 0,0"
       style="fill:#444444;fill-opacity:0.94117647"
       id="path3803"
       inkscape:connector-curvature="0" />
  </g>
  <g
     style="font-size:40px;font-style:normal;font-weight:normal;line-height:125%;letter-spacing:0px;word-spacing:0px;fill:#ff6347;fill-opacity:0.94117647;stroke:none;font-family:Sans"
     id="text2986">
    <path
       d="m 44.613232,60.299168 0,3.867187 -1.665039,0 c -4.45803,-9e-6 -7.447936,-0.662443 -8.969727,-1.987305 -1.503922,-1.324875 -2.255875,-3.96566 -2.255859,-7.922363 l 0,-6.418457 c -1.6e-5,-2.70344 -0.483414,-4.574369 -1.450196,-5.612793 -0.966809,-1.038397 -2.721365,-1.557602 -5.263672,-1.557617 l -1.638183,0 0,-3.840332 1.638183,0 c 2.560211,1.8e-5 4.314766,-0.510235 5.263672,-1.530762 0.966782,-1.03839 1.45018,-2.891416 1.450196,-5.559082 l 0,-6.445312 c -1.6e-5,-3.95667 0.751937,-6.588503 2.255859,-7.895508 1.521791,-1.324829 4.511697,-1.987263 8.969727,-1.987305 l 1.665039,0 0,3.840332 -1.826172,0 c -2.524438,3.8e-5 -4.171572,0.393918 -4.941406,1.181641 -0.769878,0.787796 -1.154806,2.443882 -1.154786,4.968262 l 0,6.660156 c -2e-5,2.810895 -0.411803,4.851908 -1.235351,6.123047 -0.805682,1.271176 -2.193214,2.13055 -4.162598,2.578125 1.987288,0.483414 3.383771,1.360692 4.189453,2.631836 0.805645,1.271171 1.208476,3.303233 1.208496,6.096191 l 0,6.660156 c -2e-5,2.524413 0.384908,4.180498 1.154786,4.968262 0.769834,0.787756 2.416968,1.181636 4.941406,1.181641 l 1.826172,0"
       style="font-size:55px;fill-opacity:0.94117647;fill:#ff6347"
       id="path3782" />
  </g>
  <g
     transform="scale(-1,1)"
     style="font-size:40px;font-style:normal;font-weight:normal;line-height:125%;letter-spacing:0px;word-spacing:0px;fill:#ff6347;fill-opacity:0.94117647;stroke:none;font-family:Sans"
     id="text2986-9">
    <path
       d="m -346.26746,60.152149 0,3.867188 -1.66504,0 c -4.45802,-9e-6 -7.44793,-0.662444 -8.96972,-1.987305 -1.50392,-1.324875 -2.25588,-3.965661 -2.25586,-7.922363 l 0,-6.418457 c -2e-5,-2.703441 -0.48341,-4.57437 -1.4502,-5.612793 -0.96681,-1.038398 -2.72136,-1.557603 -5.26367,-1.557617 l -1.63818,0 0,-3.840332 1.63818,0 c 2.56021,1.8e-5 4.31477,-0.510236 5.26367,-1.530762 0.96679,-1.038391 1.45018,-2.891416 1.4502,-5.559082 l 0,-6.445313 c -2e-5,-3.95667 0.75194,-6.588503 2.25586,-7.895508 1.52179,-1.324828 4.5117,-1.987262 8.96972,-1.987304 l 1.66504,0 0,3.840332 -1.82617,0 c -2.52444,3.8e-5 -4.17157,0.393918 -4.9414,1.18164 -0.76988,0.787797 -1.15481,2.443882 -1.15479,4.968262 l 0,6.660156 c -2e-5,2.810895 -0.4118,4.851909 -1.23535,6.123047 -0.80568,1.271177 -2.19321,2.130551 -4.1626,2.578125 1.98729,0.483415 3.38377,1.360692 4.18945,2.631836 0.80565,1.271172 1.20848,3.303233 1.2085,6.096192 l 0,6.660156 c -2e-5,2.524412 0.38491,4.180498 1.15479,4.968262 0.76983,0.787755 2.41696,1.181635 4.9414,1.18164 l 1.82617,0"
       style="font-size:55px;fill-opacity:0.94117647;fill:#ff6347"
       id="path3806" />
  </g>
</svg>
