<?xml version="1.0" encoding="utf-8"?>
<!-- Generator: Adobe Illustrator 17.1.0, SVG Export Plug-In . SVG Version: 6.00 Build 0)  -->
<!DOCTYPE svg PUBLIC "-//W3C//DTD SVG 1.1//EN" "http://www.w3.org/Graphics/SVG/1.1/DTD/svg11.dtd">
<svg version="1.1" id="Layer_1" xmlns="http://www.w3.org/2000/svg" xmlns:xlink="http://www.w3.org/1999/xlink" x="0px" y="0px"
	 viewBox="0 0 239.73 239.73" enable-background="new 0 0 239.73 239.73" xml:space="preserve">
<g>
	<path fill="#F2F2F2" d="M0,113.483c3.995-0.103,7.25-1.179,9.769-3.229c2.516-2.05,4.189-4.865,5.02-8.446
		c0.83-3.58,1.27-9.703,1.323-18.369c0.051-8.665,0.207-14.373,0.467-17.124c0.467-4.359,1.335-7.861,2.607-10.508
		c1.272-2.646,2.842-4.76,4.71-6.344c1.868-1.582,4.255-2.788,7.161-3.619c1.971-0.518,5.189-0.778,9.651-0.778h4.359v12.22h-2.413
		c-5.397,0-8.977,0.974-10.741,2.918c-1.765,1.947-2.646,6.293-2.646,13.038c0,13.596-0.286,22.183-0.856,25.763
		c-0.934,5.553-2.53,9.834-4.786,12.843c-2.259,3.01-5.799,5.682-10.625,8.017c5.707,2.388,9.847,6.032,12.414,10.936
		c2.57,4.902,3.853,12.934,3.853,24.089c0,10.118,0.103,16.137,0.311,18.058c0.414,3.528,1.466,5.993,3.152,7.394
		c1.686,1.401,4.995,2.102,9.925,2.102h2.413v12.22h-4.359c-5.086,0-8.77-0.416-11.053-1.245c-3.322-1.194-6.071-3.127-8.25-5.798
		c-2.179-2.674-3.594-6.059-4.243-10.158c-0.649-4.1-0.999-10.819-1.05-20.159c-0.053-9.34-0.493-15.8-1.323-19.381
		c-0.831-3.58-2.504-6.408-5.02-8.484C7.25,127.364,3.995,126.274,0,126.17V113.483z"/>
</g>
<g>
	<path fill="#F2F2F2" d="M126.248,0c0.103,3.995,1.179,7.25,3.229,9.769c2.05,2.516,4.865,4.189,8.446,5.02
		c3.58,0.83,9.704,1.27,18.369,1.323c8.665,0.051,14.374,0.207,17.124,0.467c4.359,0.467,7.863,1.335,10.506,2.607
		c2.649,1.272,4.76,2.842,6.345,4.71c1.58,1.868,2.789,4.255,3.617,7.161c0.52,1.971,0.781,5.189,0.781,9.651v4.359h-12.221v-2.413
		c0-5.397-0.974-8.977-2.918-10.741c-1.947-1.765-6.293-2.646-13.039-2.646c-13.593,0-22.182-0.286-25.762-0.856
		c-5.551-0.934-9.834-2.53-12.843-4.786c-3.01-2.259-5.682-5.799-8.017-10.625c-2.388,5.707-6.032,9.847-10.936,12.414
		c-4.902,2.57-12.934,3.853-24.089,3.853c-10.118,0-16.137,0.103-18.058,0.311c-3.528,0.414-5.993,1.466-7.394,3.152
		c-1.401,1.686-2.102,4.995-2.102,9.925v2.413h-12.22v-4.359c0-5.086,0.416-8.77,1.245-11.053c1.194-3.322,3.127-6.071,5.798-8.25
		c2.674-2.179,6.059-3.594,10.158-4.243c4.1-0.649,10.819-0.999,20.159-1.05c9.34-0.053,15.8-0.493,19.381-1.323
		c3.58-0.831,6.407-2.504,8.484-5.02c2.075-2.518,3.165-5.774,3.269-9.769H126.248z"/>
</g>
<g>
	<path fill="#F2F2F2" d="M113.484,239.73c-0.103-3.995-1.179-7.25-3.229-9.769c-2.05-2.516-4.865-4.189-8.446-5.02
		c-3.58-0.83-9.703-1.27-18.369-1.323c-8.665-0.051-14.373-0.207-17.124-0.467c-4.359-0.467-7.861-1.335-10.508-2.607
		s-4.76-2.842-6.344-4.71c-1.582-1.868-2.788-4.255-3.619-7.161c-0.518-1.971-0.778-5.189-0.778-9.651v-4.359h12.22v2.413
		c0,5.397,0.974,8.977,2.918,10.741c1.947,1.765,6.293,2.646,13.038,2.646c13.596,0,22.183,0.286,25.763,0.856
		c5.553,0.934,9.834,2.53,12.843,4.786c3.01,2.259,5.682,5.799,8.017,10.625c2.388-5.707,6.032-9.847,10.938-12.414
		c4.902-2.57,12.934-3.853,24.089-3.853c10.118,0,16.137-0.103,18.058-0.311c3.528-0.414,5.992-1.466,7.393-3.152
		c1.401-1.686,2.103-4.995,2.103-9.925v-2.413h12.219v4.359c0,5.086-0.414,8.77-1.245,11.053c-1.193,3.322-3.127,6.071-5.797,8.25
		c-2.675,2.179-6.061,3.594-10.158,4.243c-4.1,0.649-10.82,0.999-20.16,1.05c-9.34,0.053-15.799,0.493-19.379,1.323
		c-3.58,0.831-6.409,2.504-8.485,5.02c-2.075,2.518-3.165,5.774-3.269,9.769H113.484z"/>
</g>
<g>
	<path fill="#F2F2F2" d="M239.73,126.248c-3.995,0.103-7.25,1.179-9.768,3.229s-4.19,4.865-5.021,8.446
		c-0.831,3.58-1.269,9.703-1.322,18.369c-0.053,8.665-0.208,14.373-0.47,17.124c-0.464,4.359-1.335,7.861-2.607,10.508
		c-1.272,2.646-2.839,4.76-4.707,6.344c-1.868,1.582-4.256,2.788-7.161,3.619c-1.974,0.518-5.19,0.778-9.651,0.778h-4.359v-12.22
		h2.412c5.398,0,8.976-0.974,10.741-2.918c1.765-1.947,2.646-6.293,2.646-13.038c0-13.596,0.285-22.183,0.855-25.763
		c0.934-5.553,2.533-9.834,4.786-12.843c2.259-3.01,5.799-5.682,10.628-8.017c-5.71-2.388-9.847-6.032-12.417-10.936
		c-2.57-4.902-3.852-12.934-3.852-24.089c0-10.118-0.103-16.137-0.311-18.058c-0.414-3.528-1.467-5.993-3.15-7.394
		c-1.689-1.401-4.997-2.102-9.926-2.102h-2.412v-12.22h4.359c5.084,0,8.77,0.416,11.05,1.245c3.324,1.194,6.074,3.127,8.253,5.798
		c2.179,2.674,3.594,6.059,4.243,10.158c0.649,4.1,0.997,10.819,1.05,20.159c0.053,9.34,0.491,15.8,1.322,19.381
		s2.504,6.407,5.021,8.484c2.517,2.075,5.773,3.165,9.768,3.269V126.248z"/>
</g>
<g>
	<path fill="#F2F2F2" d="M140.188,151.615c-5.241,4.455-10.286,7.601-15.133,9.434c-4.849,1.834-10.051,2.752-15.605,2.752
		c-9.172,0-16.221-2.24-21.147-6.722c-4.927-4.48-7.39-10.206-7.39-17.177c0-4.088,0.93-7.822,2.791-11.202
		c1.859-3.381,4.296-6.093,7.311-8.137c3.013-2.044,6.407-3.589,10.181-4.638c2.777-0.733,6.97-1.441,12.578-2.123
		c11.425-1.362,19.836-2.987,25.235-4.874c0.052-1.938,0.079-3.17,0.079-3.695c0-5.765-1.337-9.827-4.01-12.185
		c-3.616-3.196-8.988-4.795-16.116-4.795c-6.656,0-11.57,1.167-14.74,3.499c-3.171,2.333-5.516,6.459-7.036,12.381l-13.836-1.887
		c1.258-5.922,3.328-10.704,6.21-14.347c2.882-3.642,7.048-6.446,12.5-8.411c5.45-1.966,11.765-2.948,18.946-2.948
		c7.127,0,12.918,0.839,17.373,2.516c4.454,1.678,7.73,3.787,9.827,6.328c2.096,2.543,3.563,5.752,4.402,9.63
		c0.472,2.411,0.708,6.761,0.708,13.05v18.867c0,13.155,0.301,21.476,0.903,24.96c0.603,3.486,1.795,6.827,3.577,10.023h-14.779
		C141.551,158.979,140.607,155.546,140.188,151.615z M139.009,120.013c-5.137,2.097-12.841,3.879-23.112,5.346
		c-5.817,0.839-9.932,1.782-12.342,2.83c-2.411,1.049-4.272,2.582-5.582,4.6c-1.311,2.018-1.965,4.258-1.965,6.721
		c0,3.773,1.427,6.918,4.284,9.434c2.856,2.516,7.036,3.773,12.539,3.773c5.45,0,10.298-1.191,14.543-3.576s7.363-5.647,9.355-9.788
		c1.52-3.196,2.279-7.913,2.279-14.15V120.013z"/>
</g>
</svg>
